<svg width="387" height="264" viewBox="0 0 387 264" fill="none" xmlns="http://www.w3.org/2000/svg">
<g clip-path="url(#clip0_2067_4331)">
<mask id="mask0_2067_4331" style="mask-type:luminance" maskUnits="userSpaceOnUse" x="0" y="0" width="387" height="264">
<path d="M386.089 0H0V263.961H386.089V0Z" fill="white"/>
</mask>
<g mask="url(#mask0_2067_4331)">
<path d="M0 110.036H8.02108V116.548H8.218C8.74311 115.419 9.46514 114.408 10.3578 113.463C11.2637 112.557 12.2351 111.769 13.3378 111.087C14.4668 110.417 15.6877 109.905 16.948 109.537C18.2608 109.157 19.5473 108.973 20.8601 108.973C22.1728 108.973 23.3412 109.157 24.4308 109.498L24.0895 118.162C23.4462 117.979 22.7899 117.821 22.1335 117.716C21.4902 117.598 20.8338 117.532 20.1774 117.519C16.2653 117.519 13.2591 118.609 11.1849 120.827C9.11069 123.007 8.06047 126.433 8.06047 131.067V152.295H0C0 152.308 0 110.036 0 110.036ZM29.3275 131.185C29.3275 128.1 29.892 125.199 31.0604 122.521C33.3446 117.191 37.6111 112.951 42.9542 110.706C45.7372 109.537 48.7435 108.947 51.7629 108.973C54.7823 108.934 57.7886 109.524 60.5717 110.706C63.2366 111.809 65.6521 113.436 67.6869 115.484C69.7217 117.519 71.2971 119.856 72.4654 122.521C73.6338 125.199 74.1983 128.1 74.1983 131.185C74.2377 137.093 71.9009 142.764 67.6869 146.925C65.6521 148.921 63.276 150.496 60.5717 151.625C57.7886 152.794 54.7823 153.384 51.7629 153.358C48.7435 153.397 45.7372 152.807 42.9542 151.625C40.3023 150.522 37.8868 148.921 35.8389 146.925C33.791 144.917 32.1762 142.528 31.0604 139.889C29.9051 137.132 29.3144 134.178 29.3275 131.185ZM37.9131 131.185C37.9131 133.325 38.2544 135.281 38.8977 137.093C39.5409 138.904 40.473 140.44 41.6545 141.727C42.8885 143.04 44.372 144.077 46.0129 144.772C47.8508 145.547 49.82 145.928 51.8154 145.901C53.8108 145.928 55.78 145.547 57.6179 144.772C59.272 144.064 60.7554 143.026 61.9763 141.727C63.1841 140.453 64.0899 138.904 64.7332 137.093C65.3764 135.281 65.7178 133.286 65.7178 131.185C65.7178 129.045 65.3764 127.089 64.7332 125.278C64.1424 123.571 63.1972 121.996 61.9763 120.644C60.7423 119.331 59.2589 118.294 57.6179 117.598C55.78 116.823 53.8108 116.443 51.8154 116.469C49.82 116.443 47.8508 116.823 46.0129 117.598C44.3588 118.307 42.8754 119.344 41.6545 120.644C40.4205 121.969 39.4884 123.558 38.8977 125.278C38.215 127.05 37.9131 129.045 37.9131 131.185ZM84.3198 84.9229H92.3409V116.574H92.5379C93.5487 114.316 95.2816 112.478 97.8021 111.073C100.283 109.682 103.184 108.973 106.466 108.973C108.501 108.973 110.418 109.275 112.308 109.918C114.199 110.561 115.813 111.494 117.205 112.819C118.597 114.132 119.726 115.799 120.553 117.86C121.38 119.895 121.8 122.337 121.8 125.133V152.308H113.779V127.352C113.779 125.396 113.516 123.702 112.991 122.311C112.545 121.037 111.809 119.869 110.851 118.924C109.972 118.084 108.921 117.44 107.766 117.047C106.598 116.666 105.377 116.482 104.156 116.482C102.502 116.482 100.953 116.745 99.5218 117.27C98.104 117.808 96.8175 118.674 95.7935 119.79C94.6646 121.064 93.8112 122.573 93.3124 124.201C92.7085 125.973 92.4066 128.074 92.4066 130.529V152.282H84.3855V84.936H84.3198V84.9229ZM134.507 84.9229H142.528V152.308H134.507V84.9229ZM154.042 94.9C154.042 93.2853 154.606 91.92 155.774 90.7647C156.851 89.6357 158.347 89.0056 159.91 89.0319C161.524 89.0319 162.89 89.5963 164.045 90.7647C165.213 91.9331 165.778 93.2853 165.778 94.9C165.778 96.5147 165.213 97.8669 164.045 99.0352C162.968 100.164 161.459 100.794 159.91 100.768C158.295 100.768 156.93 100.204 155.774 99.0352C154.645 97.9588 154.015 96.4622 154.042 94.9ZM155.893 110.036H163.914V152.268H155.893V110.036ZM176.674 84.9229H184.695V128.402L202.877 110.141H214.022L194.331 129.308L215.716 152.308H204.308L184.682 130.358V152.308H176.661C176.674 152.308 176.674 84.9229 176.674 84.9229Z" fill="black"/>
<path d="M342.888 217.002C320.387 221.255 306.327 240.868 308.704 243.257C311.08 245.581 323.945 253.235 325.035 252.381C339.042 240.645 364.943 239.805 367.149 242.457C369.367 245.122 364.877 219.155 364.877 219.155C364.877 219.155 362.383 215.978 353.259 215.978C350.489 215.925 347.076 216.214 342.888 217.002ZM312.445 178.459C289.944 182.712 275.884 202.325 278.26 204.714C280.636 207.038 287.844 233.11 288.684 231.981C300.026 216.963 322.238 201.826 336.705 203.861C338.753 204.15 339.37 196.273 338.294 189.749C337.559 185.325 335.169 181.412 335.169 181.412C335.169 181.412 334.657 177.212 324.339 177.212C321.293 177.159 317.381 177.5 312.445 178.459ZM300.42 68.4871C288.92 77.5059 263.688 76.3638 246.399 69.0516C245.099 68.4871 250.246 93.7713 249.405 97.0007C248.552 100.178 270.502 110.207 292.149 102.606C313.128 95.2416 310.397 88.7171 310.397 88.7171C310.397 88.7171 311.027 85.7633 309.833 82.4289C307.68 76.4163 303.032 68.3165 300.932 68.3165C300.761 68.3559 300.591 68.4084 300.42 68.4871ZM307.063 21.3846C306.446 24.7847 283.59 36.9804 265.631 33.856C264.214 33.6328 256.901 46.7213 256.048 49.8982C255.195 53.0751 277.131 63.1047 298.792 55.5037C315.793 49.5437 317.276 42.2447 317.276 42.2447C317.276 42.2447 317.788 36.4684 316.987 33.6854C315.228 27.5678 309.163 21.0433 307.522 21.0433C307.233 20.9908 307.115 21.0958 307.063 21.3846Z" fill="url(#paint0_linear_2067_4331)"/>
<path d="M359.766 243.363C355.342 251.804 346.336 257.987 341.57 259.799C349.29 261.847 357.219 263.251 365.266 263.934V263.816C375.493 265.01 384.761 257.698 385.956 247.472C386.231 245.122 386.061 242.746 385.444 240.461C384.026 235.25 380.114 230.773 375.742 228.436C371.607 225.259 368.154 222.03 364.242 218.341C364.649 220.743 365.949 231.574 359.766 243.363ZM301.386 242.234C308.318 246.618 315.591 250.399 323.152 253.576C326.158 252.329 334.495 247.288 344.012 231.298C352.847 216.503 350.13 203.073 350.13 203.073C344.406 195.932 339.247 188.344 334.718 180.402C336.7 195.236 319.358 228.174 301.386 242.234ZM239.817 158.334C247.615 187.675 264.576 213.746 288.232 232.769C314.816 214.967 327.458 176.135 316.917 136.804C306.493 97.9067 276.732 70.7584 245.147 68.0934C234.093 95.8719 231.494 127.274 239.817 158.334ZM264.76 33.7905C260.008 40 255.741 46.577 252.013 53.456C274.172 56.9086 304.274 75.7995 310.576 90.1875C310.51 81.1556 311.18 72.1368 312.558 63.2099C310.287 57.6569 302.804 48.2442 294.875 43.0325C282.692 34.9851 272.715 33.6199 267.438 33.6199C266.348 33.6855 265.442 33.738 264.76 33.7905ZM302.804 0.524682C301.399 0.918516 300.06 1.46988 298.774 2.16566V2.10002C291.094 7.1936 283.926 13.0486 277.402 19.56C281.878 18.431 292.761 18.9955 301.15 24.3779C312.151 31.4144 316.286 40.4726 317.245 42.8093C319.017 36.823 321.183 30.9549 323.704 25.2312H323.585C325.318 21.4635 325.673 17.2101 324.609 13.2061C322.548 5.46073 315.538 0.0520816 307.504 0.0126982C305.915 -0.0529408 304.34 0.117721 302.804 0.524682Z" fill="url(#paint1_linear_2067_4331)"/>
<path d="M359.766 243.363C355.342 251.804 346.336 257.987 341.57 259.799C349.29 261.847 357.219 263.251 365.266 263.934V263.816C375.493 265.01 384.761 257.698 385.956 247.472C386.231 245.122 386.061 242.746 385.444 240.461C384.026 235.25 380.114 230.773 375.742 228.436C371.607 225.259 368.154 222.03 364.242 218.341C364.649 220.743 365.949 231.574 359.766 243.363ZM301.386 242.234C308.318 246.618 315.591 250.399 323.152 253.576C326.158 252.329 334.495 247.288 344.012 231.298C352.847 216.503 350.13 203.073 350.13 203.073C344.406 195.932 339.247 188.344 334.718 180.402C336.7 195.236 319.358 228.174 301.386 242.234ZM239.817 158.334C247.615 187.675 264.576 213.746 288.232 232.769C314.816 214.967 327.458 176.135 316.917 136.804C306.493 97.9067 276.732 70.7584 245.147 68.0934C234.093 95.8719 231.494 127.274 239.817 158.334ZM264.76 33.7905C260.008 40 255.741 46.577 252.013 53.456C274.172 56.9086 304.274 75.7995 310.576 90.1875C310.51 81.1556 311.18 72.1368 312.558 63.2099C310.287 57.6569 302.804 48.2442 294.875 43.0325C282.692 34.9851 272.715 33.6199 267.438 33.6199C266.348 33.6855 265.442 33.738 264.76 33.7905ZM302.804 0.524682C301.399 0.918516 300.06 1.46988 298.774 2.16566V2.10002C291.094 7.1936 283.926 13.0486 277.402 19.56C281.878 18.431 292.761 18.9955 301.15 24.3779C312.151 31.4144 316.286 40.4726 317.245 42.8093C319.017 36.823 321.183 30.9549 323.704 25.2312H323.585C325.318 21.4635 325.673 17.2101 324.609 13.2061C322.548 5.46073 315.538 0.0520816 307.504 0.0126982C305.915 -0.0529408 304.34 0.117721 302.804 0.524682Z" fill="url(#paint2_linear_2067_4331)" fill-opacity="0.1"/>
<path d="M29.2843 209.834C30.5314 211.514 32.1593 212.866 34.1678 213.877C36.1764 214.888 38.4081 215.4 40.863 215.4C43.0159 215.4 44.8538 215.085 46.3635 214.468C47.8732 213.838 49.0941 212.984 50.0262 211.908C50.9583 210.831 51.6278 209.571 52.0347 208.114C52.4417 206.67 52.6517 205.121 52.6517 203.48V198.045H52.5205C51.142 200.119 49.4617 201.589 47.4663 202.443C45.484 203.309 43.3835 203.742 41.1912 203.742C38.9857 203.742 36.9246 203.349 35.008 202.574C33.0913 201.8 31.411 200.723 29.9932 199.371C28.5754 198.006 27.4464 196.378 26.6324 194.487C25.8185 192.584 25.3984 190.536 25.3984 188.33C25.3984 186.125 25.7923 184.077 26.5668 182.187C27.3414 180.283 28.4178 178.629 29.77 177.198C31.1353 175.767 32.75 174.664 34.6273 173.864C36.5046 173.063 38.5656 172.669 40.8105 172.669C41.7163 172.669 42.6746 172.761 43.6855 172.932C44.6963 173.102 45.7071 173.404 46.7311 173.837C47.7419 174.271 48.7528 174.861 49.7374 175.623C50.7351 176.384 51.654 177.342 52.5205 178.498H52.6517V173.443H56.9183V203.48C56.9183 205.121 56.7082 206.867 56.3013 208.718C55.8943 210.569 55.0935 212.276 53.912 213.838C52.7174 215.387 51.0764 216.686 48.9628 217.724C46.8493 218.761 44.0793 219.273 40.6792 219.273C37.6598 219.273 34.9555 218.774 32.5925 217.789C30.2163 216.791 28.0634 215.269 26.1205 213.194L29.2843 209.834ZM30.0588 188.199C30.0588 189.801 30.3476 191.297 30.9384 192.702C31.516 194.107 32.3168 195.341 33.3408 196.391C34.3516 197.454 35.5462 198.294 36.8984 198.911C38.2637 199.542 39.734 199.843 41.3356 199.843C42.8847 199.843 44.3681 199.568 45.7728 199.003C47.1775 198.439 48.4115 197.651 49.5011 196.64C50.5776 195.629 51.4046 194.409 51.9954 192.978C52.573 191.56 52.8487 189.958 52.8093 188.186C52.8093 186.584 52.5467 185.088 52.0347 183.683C51.5228 182.278 50.7613 181.044 49.7636 179.994C48.7659 178.944 47.5582 178.091 46.1404 177.474C44.7226 176.844 43.121 176.542 41.3487 176.542C39.7471 176.542 38.2768 176.857 36.9115 177.474C35.5462 178.104 34.3647 178.944 33.3539 179.994C32.343 181.058 31.5422 182.278 30.9515 183.683C30.3476 185.114 30.0588 186.611 30.0588 188.199Z" fill="black"/>
<path d="M72.1401 182.895C72.1401 181.556 72.1007 180.204 72.0482 178.813C71.9825 177.434 71.93 175.636 71.8906 173.443H76.1047V179.075H76.2359C76.5379 178.261 76.9711 177.474 77.5356 176.712C78.1001 175.964 78.7827 175.281 79.5704 174.677C80.3712 174.074 81.2901 173.588 82.3535 173.22C83.4168 172.853 84.6115 172.669 85.9505 172.669C87.1583 172.669 88.2216 172.8 89.1274 173.063L88.2872 177.277C87.7228 177.067 86.9088 176.949 85.8323 176.949C84.1914 176.949 82.7867 177.264 81.6183 177.881C80.45 178.511 79.4785 179.312 78.704 180.283C77.9294 181.255 77.3518 182.305 76.9842 183.421C76.6166 184.536 76.4328 185.626 76.4328 186.663V203.742H72.1663V182.895H72.1401Z" fill="black"/>
<path d="M127.809 188.593C127.809 190.877 127.415 192.991 126.614 194.934C125.814 196.877 124.711 198.557 123.28 199.988C121.849 201.419 120.156 202.522 118.2 203.322C116.23 204.123 114.064 204.517 111.688 204.517C109.351 204.517 107.212 204.123 105.242 203.322C103.273 202.522 101.58 201.419 100.162 199.988C98.7441 198.557 97.6282 196.877 96.8274 194.934C96.0266 192.991 95.6328 190.877 95.6328 188.593C95.6328 186.309 96.0266 184.195 96.8274 182.252C97.6282 180.309 98.731 178.629 100.162 177.198C101.593 175.767 103.273 174.664 105.242 173.864C107.212 173.063 109.351 172.669 111.688 172.669C114.064 172.669 116.23 173.063 118.2 173.864C120.169 174.664 121.862 175.767 123.28 177.198C124.711 178.616 125.814 180.309 126.614 182.252C127.415 184.195 127.809 186.309 127.809 188.593ZM123.149 188.593C123.149 186.913 122.873 185.337 122.335 183.867C121.797 182.397 121.022 181.123 120.037 180.047C119.04 178.97 117.845 178.117 116.44 177.487C115.036 176.857 113.447 176.555 111.675 176.555C109.903 176.555 108.314 176.87 106.923 177.487C105.518 178.117 104.337 178.97 103.365 180.047C102.394 181.123 101.632 182.397 101.094 183.867C100.556 185.337 100.28 186.913 100.28 188.593C100.28 190.273 100.556 191.849 101.094 193.319C101.632 194.789 102.394 196.063 103.365 197.139C104.337 198.216 105.518 199.069 106.923 199.699C108.327 200.329 109.916 200.644 111.675 200.644C113.447 200.644 115.036 200.329 116.44 199.699C117.845 199.069 119.04 198.216 120.037 197.139C121.035 196.063 121.797 194.789 122.335 193.319C122.886 191.849 123.149 190.273 123.149 188.593Z" fill="black"/>
<path d="M162.637 203.743C162.545 202.929 162.492 202.115 162.479 201.315C162.453 200.514 162.44 199.713 162.44 198.886H162.308C161.836 199.7 161.232 200.461 160.497 201.157C159.762 201.853 158.948 202.444 158.042 202.943C157.136 203.441 156.178 203.822 155.167 204.111C154.156 204.387 153.145 204.531 152.161 204.531C148.275 204.531 145.4 203.507 143.549 201.459C141.698 199.411 140.766 196.484 140.766 192.69V173.457H145.032V190.222C145.032 191.902 145.163 193.399 145.426 194.685C145.689 195.985 146.122 197.074 146.752 197.954C147.382 198.834 148.222 199.503 149.272 199.962C150.323 200.422 151.662 200.645 153.25 200.645C153.46 200.645 154.064 200.553 155.062 200.383C156.059 200.212 157.097 199.739 158.199 198.952C159.302 198.177 160.287 197.009 161.14 195.46C162.006 193.911 162.44 191.744 162.44 188.988V173.444H166.706V197.074C166.706 197.888 166.746 198.925 166.798 200.186C166.864 201.433 166.942 202.627 167.021 203.743H162.637Z" fill="black"/>
<path d="M181.938 173.443H186.204V178.498H186.335C187.031 177.461 187.845 176.581 188.79 175.846C189.735 175.111 190.733 174.507 191.77 174.034C192.807 173.562 193.871 173.22 194.973 172.997C196.076 172.787 197.113 172.669 198.111 172.669C200.487 172.669 202.653 173.063 204.622 173.864C206.591 174.664 208.285 175.767 209.703 177.198C211.134 178.616 212.236 180.309 213.037 182.252C213.838 184.195 214.232 186.309 214.232 188.593C214.232 190.877 213.838 192.991 213.037 194.934C212.236 196.877 211.134 198.557 209.703 199.988C208.272 201.419 206.578 202.522 204.622 203.322C202.653 204.123 200.487 204.517 198.111 204.517C197.113 204.517 196.076 204.412 194.973 204.189C193.871 203.979 192.807 203.624 191.77 203.152C190.733 202.679 189.735 202.075 188.79 201.34C187.845 200.605 187.018 199.725 186.335 198.688H186.204V222.384H181.938V173.443ZM209.585 188.593C209.585 186.913 209.309 185.337 208.771 183.867C208.232 182.397 207.458 181.123 206.473 180.047C205.476 178.97 204.281 178.117 202.876 177.487C201.472 176.857 199.883 176.555 198.124 176.555C196.352 176.555 194.737 176.87 193.267 177.487C191.796 178.117 190.523 178.97 189.447 180.047C188.37 181.123 187.53 182.397 186.926 183.867C186.322 185.337 186.02 186.913 186.02 188.593C186.02 190.273 186.322 191.849 186.926 193.319C187.53 194.789 188.37 196.063 189.447 197.139C190.523 198.216 191.796 199.069 193.267 199.699C194.737 200.329 196.352 200.644 198.124 200.644C199.896 200.644 201.485 200.329 202.876 199.699C204.281 199.069 205.476 198.216 206.473 197.139C207.471 196.063 208.232 194.789 208.771 193.319C209.309 191.849 209.585 190.273 209.585 188.593Z" fill="black"/>
</g>
</g>
<defs>
<linearGradient id="paint0_linear_2067_4331" x1="346.243" y1="108.632" x2="258.612" y2="132.196" gradientUnits="userSpaceOnUse">
<stop stop-color="#9D5D00"/>
<stop offset="1" stop-color="#E58035"/>
</linearGradient>
<linearGradient id="paint1_linear_2067_4331" x1="326.077" y1="63.2997" x2="167.6" y2="354.273" gradientUnits="userSpaceOnUse">
<stop stop-color="#FBBD47"/>
<stop offset="1" stop-color="#CE7014"/>
</linearGradient>
<linearGradient id="paint2_linear_2067_4331" x1="310.498" y1="-0.00097656" x2="310.498" y2="263.943" gradientUnits="userSpaceOnUse">
<stop stop-color="white"/>
<stop offset="1" stop-color="white" stop-opacity="0"/>
</linearGradient>
<clipPath id="clip0_2067_4331">
<rect width="386.089" height="264" fill="white"/>
</clipPath>
</defs>
</svg>
